<?xml version="1.0" encoding="utf-8"?>
<svg version="1.2" xmlns="http://www.w3.org/2000/svg" viewBox="0 0 370 452" width="370" height="452">
  <title>image</title>
  <defs>
    <clipPath clipPathUnits="userSpaceOnUse" id="cp1">
      <path d="m0 0h370v452h-370z"/>
    </clipPath>
  </defs>
  <style>
		.s0 { fill: #fff200;stroke: #603913;stroke-miterlimit:10;stroke-width: 18 } 
		.s1 { fill: #603913 } 
		.s2 { fill: #000000 } 
		.s3 { fill: #fffcbb } 
	</style>
  <g id="Clip-Path" clip-path="url(#cp1)">
    <g>
      <path class="s0" d="m9 165.9c-0.3-20.5 2.3-40.8 6.1-60.9 2.6-13.6 6.7-26.8 14.5-38.7 9.7-15 23.7-25.4 40-33.6 16.9-8.5 35-13.9 53.7-17.7 22.9-4.7 46-6.4 69.3-5.9 31.7 0.7 62.7 5.4 92.3 16.8 14.4 5.5 27.9 12.6 39.6 22.5 14.5 12.3 23.2 27.8 27.6 45.4 7.5 30.1 10.3 61.1 8.2 91.9-1.4 19.6-4.9 39-10.5 57.9-4.9 16.1-10.7 32-15.4 48.2-2.1 7.3-2.7 15-3.5 22.6-1.2 11.7-1.4 23.5-3.1 35.1-3.3 22.4-14.7 41.1-32.1 56.7-14 12.5-31 21.7-49.7 26.7-11.1 3-22.5 5.7-34 7.4-14.8 2-29.9 2.3-44.9 0.9-17.9-1.5-35.3-4.9-52.1-11-23.4-8.6-42.8-22.2-57.1-41.9-7.6-10.5-13-22-14.9-34.6-1.7-12.1-3.2-24.2-3.7-36.3-0.6-12.9-3.3-25.5-7.9-37.7-6.5-17.3-11.5-35.1-15.5-53.1-4.5-20-7.2-40.2-6.9-60.7z" style="stroke: rgb(58, 3, 3); fill: rgb(117, 15, 15);"/>
      <path class="s1" d="m96.5 253c15.2 0 27.5-12.3 27.5-27.5 0-15.2-12.3-27.5-27.5-27.5-15.2 0-27.5 12.3-27.5 27.5 0 15.2 12.3 27.5 27.5 27.5z" style="fill: rgb(212, 45, 45);"/>
      <path class="s2" d="m85 216.9c0-0.9 0.8-1.7 1.7-1.7h19.6c0.9 0 1.7 0.8 1.7 1.7 0 1-0.8 1.7-1.7 1.7h-19.6c-0.9 0-1.7-0.7-1.7-1.7zm0 8.6c0-1 0.8-1.7 1.7-1.7h19.6c0.9 0 1.7 0.7 1.7 1.7 0 1-0.8 1.7-1.7 1.7h-19.6c-0.9 0-1.7-0.7-1.7-1.7zm23 8.6c0 0.9-0.8 1.7-1.7 1.7h-19.6c-0.9 0-1.7-0.8-1.7-1.7 0-1 0.8-1.7 1.7-1.7h19.6c0.9 0 1.7 0.7 1.7 1.7z"/>
      <path class="s1" d="m271.5 253c15.2 0 27.5-12.3 27.5-27.5 0-15.2-12.3-27.5-27.5-27.5-15.2 0-27.5 12.3-27.5 27.5 0 15.2 12.3 27.5 27.5 27.5z" style="fill: rgb(212, 45, 45);"/>
      <path class="s2" d="m271.5 225.5c1.6 0 3.1-0.5 4.2-1.5 1.1-1 1.7-2.3 1.7-3.7 0-1.3-0.6-2.6-1.7-3.6-1.1-1-2.6-1.5-4.2-1.5-1.6 0-3.1 0.5-4.2 1.5-1.1 1-1.7 2.3-1.7 3.6 0 1.4 0.6 2.7 1.7 3.7 1.1 1 2.6 1.5 4.2 1.5zm-2.1 1.9c-4.5 0-8.2 3.2-8.2 7.2 0 0.7 0.6 1.2 1.4 1.2h17.8c0.8 0 1.4-0.5 1.4-1.2 0-4-3.7-7.2-8.2-7.2z"/>
      <path class="s3" d="m277 79h-177c-5.5 0-10 4.5-10 10v62c0 5.5 4.5 10 10 10h177c5.5 0 10-4.5 10-10v-62c0-5.5-4.5-10-10-10z" style="fill: rgb(255, 187, 187);"/>
    </g>
  </g>
</svg>