<svg width="20" height="18" viewBox="0 0 20 18" fill="none" xmlns="http://www.w3.org/2000/svg">
<path d="M0 1.5C0 0.6703 0.6384 0 1.4286 0H18.5714C19.3616 0 20 0.6703 20 1.5C20 2.3297 19.3616 3 18.5714 3H1.4286C0.6384 3 0 2.3297 0 1.5ZM0 9C0 8.1703 0.6384 7.5 1.4286 7.5H18.5714C19.3616 7.5 20 8.1703 20 9C20 9.8297 19.3616 10.5 18.5714 10.5H1.4286C0.6384 10.5 0 9.8297 0 9ZM20 16.5C20 17.3297 19.3616 18 18.5714 18H1.4286C0.6384 18 0 17.3297 0 16.5C0 15.6703 0.6384 15 1.4286 15H18.5714C19.3616 15 20 15.6703 20 16.5Z" fill="white"/>
</svg>
